<svg width="111" height="51" viewBox="0 0 111 51" fill="none" xmlns="http://www.w3.org/2000/svg">
<path d="M9.75 30.3C7.21667 30.3 5.15 29.5667 3.55 28.1C1.98333 26.6667 1.2 24.7 1.2 22.2C1.2 21.8333 1.21667 21.4333 1.25 21C1.31667 20.5667 1.38333 20.1 1.45 19.6C1.28333 19.6 1.06667 19.3167 0.8 18.75C0.566667 18.1833 0.45 17.8167 0.45 17.65C0.45 17.45 0.516667 17.35 0.65 17.35L2.1 17.65C3.46667 13.75 6.11667 10.3333 10.05 7.4C14.0167 4.43333 17.8667 2.95 21.6 2.95C22.9 2.95 23.7833 3.08333 24.25 3.35C24.6167 2.11667 24.9833 1.43333 25.35 1.3C25.45 1.26667 25.5667 1.25 25.7 1.25C26.8667 1.25 27.45 1.46667 27.45 1.9C27.35 1.9 26.9667 2.36667 26.3 3.3C26.1 3.6 25.7667 4.1 25.3 4.8C24.8667 5.46667 24.5167 6.01667 24.25 6.45C24.0167 6.88333 23.7833 7.35 23.55 7.85C23.35 8.31667 23.25 8.68333 23.25 8.95L23.45 9.7C23.45 9.76667 23.4167 9.8 23.35 9.8C22.85 9.8 22.6 9.2 22.6 8C22.6 6.83333 22.9833 5.58333 23.75 4.25C23.5167 4.21667 23.2833 4.2 23.05 4.2C22.85 4.16667 22.6667 4.15 22.5 4.15C19.0333 4.15 15.4667 5.55 11.8 8.35C8.1 11.1167 5.63333 14.25 4.4 17.75C5.63333 17.75 6.86667 17.75 8.1 17.75C9.36667 17.7167 10.5 17.7 11.5 17.7C12.5333 17.6667 13.3 17.6333 13.8 17.6C14.8 17.5333 15.8167 17.4167 16.85 17.25C17.9167 17.0833 18.9833 16.8667 20.05 16.6C20.2833 16.6 20.4 16.6833 20.4 16.85C20.4 17.4833 18.3167 18.1167 14.15 18.75C9.95 19.35 6.5 19.6833 3.8 19.75C3.7 20.3833 3.65 20.9833 3.65 21.55C3.65 23.7833 4.4 25.6 5.9 27C7.4 28.3667 9.31667 29.05 11.65 29.05C16.3167 29.05 20.4333 27.1167 24 23.25C24.4667 22.7833 24.8 22.55 25 22.55C25.1333 22.55 25.2 22.65 25.2 22.85C25.2 23.15 25.05 23.4667 24.75 23.8C22.9833 25.8 20.6667 27.3833 17.8 28.55C14.9 29.7167 12.2167 30.3 9.75 30.3ZM27.9117 28.45C26.3117 28.45 25.5117 27.1167 25.5117 24.45C25.5117 22.75 26.0451 19.95 27.1117 16.05C28.1784 12.1167 29.5284 8.5 31.1617 5.2C32.8284 1.83333 34.2951 0.149998 35.5617 0.149998C36.2951 0.149998 37.0284 0.399998 37.7617 0.899997C38.4951 1.36667 38.8617 1.88333 38.8617 2.45C38.8617 4.85 35.3284 10.1833 28.2617 18.45C27.9951 19.6833 27.7784 20.8333 27.6117 21.9C27.4784 22.9667 27.4117 23.9667 27.4117 24.9C27.4117 26.7333 27.8117 27.65 28.6117 27.65L29.4117 27.4C29.5784 27.4 29.6617 27.4833 29.6617 27.65C29.6617 28.1833 29.0784 28.45 27.9117 28.45ZM28.6117 17.15C34.6451 9.28333 37.6617 4.33333 37.6617 2.3C37.6617 1.9 37.5451 1.7 37.3117 1.7C36.3117 1.7 34.8617 3.48333 32.9617 7.05C31.0617 10.6167 29.6117 13.9833 28.6117 17.15ZM35.6406 28.55C32.8073 28.55 31.3906 27.2333 31.3906 24.6C31.3906 22.5667 32.3906 20.1 34.3906 17.2C36.4573 14.3 38.424 12.85 40.2906 12.85C41.0906 12.85 41.7906 13.1167 42.3906 13.65C43.024 14.15 43.3406 14.7667 43.3406 15.5C43.3406 16.7333 42.5573 17.9833 40.9906 19.25C39.4573 20.4833 37.9406 21.1 36.4406 21.1C36.1406 21.1 35.9906 21.0333 35.9906 20.9L36.1406 20.65C39.974 19.45 41.8906 17.4833 41.8906 14.75C41.8906 14.35 41.7573 14.15 41.4906 14.15C41.124 14.15 40.4573 14.5333 39.4906 15.3C38.6573 15.9667 37.874 16.7333 37.1406 17.6C36.4406 18.4667 35.8073 19.3667 35.2406 20.3C34.0406 22.3333 33.4406 24.0333 33.4406 25.4C33.4406 26.7333 33.9573 27.4 34.9906 27.4C36.1906 27.4 37.5073 26.7833 38.9406 25.55C39.4073 25.1167 39.9073 24.6333 40.4406 24.1C40.974 23.5333 41.5573 22.9167 42.1906 22.25C43.424 20.9167 44.074 20.25 44.1406 20.25C44.3406 20.25 44.4406 20.3333 44.4406 20.5C44.4406 20.6333 44.4073 20.7667 44.3406 20.9C40.8406 26 37.9406 28.55 35.6406 28.55ZM30.5105 50.85C28.1772 50.85 26.2439 50.2 24.7105 48.9C23.1439 47.6 22.3605 45.8 22.3605 43.5C22.3605 41.2333 23.6439 38.95 26.2105 36.65C28.7439 34.4167 31.9272 32.6167 35.7605 31.25C39.4605 29.9167 43.1605 29.25 46.8605 29.25C48.5605 29.25 50.0105 29.4 51.2105 29.7C51.3439 29.3333 51.4105 28.9667 51.4105 28.6C51.4105 27.4667 51.2772 26.6667 51.0105 26.2C49.7105 27.4 48.5272 28 47.4605 28C46.3939 28 45.4605 27.4833 44.6605 26.45C43.8605 25.3833 43.4605 24.2833 43.4605 23.15C43.4605 20.8167 44.7439 18.4 47.3105 15.9C47.3105 13.9667 47.5105 12.6833 47.9105 12.05C48.3772 11.3833 49.1605 11.05 50.2605 11.05C51.4605 11.05 52.7272 12.15 54.0605 14.35C56.4605 14.7833 57.6605 15.6667 57.6605 17C57.6605 17.5333 57.4605 17.95 57.0605 18.25C56.6939 18.5167 56.5105 18.5 56.5105 18.2C56.8439 17.9667 57.0105 17.7 57.0105 17.4C57.0105 16.4 56.2105 15.9 54.6105 15.9C54.6439 16.0333 54.6605 16.1833 54.6605 16.35C54.6605 16.5167 54.6605 16.7167 54.6605 16.95C54.6605 20.15 53.6939 22.9667 51.7605 25.4C52.2605 26.3333 52.5105 27.5833 52.5105 29.15C52.5105 29.3167 52.5105 29.4667 52.5105 29.6C52.5105 29.7667 52.4939 29.9333 52.4605 30.1C53.8272 30.6333 54.9605 31.3667 55.8605 32.3C56.7939 33.2 57.2605 34.05 57.2605 34.85C57.2605 35.6833 57.0605 36.1 56.6605 36.1C56.5605 36.1 56.4772 36 56.4105 35.8C56.6772 35.4333 56.8105 35.0833 56.8105 34.75C56.8105 34.05 56.3605 33.35 55.4605 32.65C54.5605 31.95 53.5772 31.4333 52.5105 31.1C52.1105 34.4667 50.8272 37.7 48.6605 40.8C46.4939 43.8667 43.7939 46.3 40.5605 48.1C37.3272 49.9333 33.9772 50.85 30.5105 50.85ZM48.2105 15.2C49.2772 14.4667 50.3105 14.1 51.3105 14.1H51.7105C51.2772 13 50.5772 12.45 49.6105 12.45C48.6772 12.45 48.2105 13.35 48.2105 15.15V15.2ZM51.2105 24.2C52.4105 22.4333 53.0105 20.5167 53.0105 18.45C53.0105 17.5167 52.8605 16.6833 52.5605 15.95C51.9939 16.15 51.1772 16.5333 50.1105 17.1C49.0772 17.6333 48.5605 18.0167 48.5605 18.25C48.5605 18.4833 49.4439 20.4667 51.2105 24.2ZM47.4105 27.4C48.5772 27.4 49.6772 26.5833 50.7105 24.95L48.1105 18.75C47.4105 19.45 46.7772 20.4 46.2105 21.6C45.6772 22.8 45.4105 23.8667 45.4105 24.8C45.4105 26.5333 46.0772 27.4 47.4105 27.4ZM29.6105 48.75C31.9772 48.75 34.2939 48.3 36.5605 47.4C38.7939 46.5 40.9772 45.1167 43.1105 43.25C47.2439 39.5833 49.8772 35.4333 51.0105 30.8C50.6105 30.7333 50.1272 30.6667 49.5605 30.6C49.0272 30.5667 48.4105 30.55 47.7105 30.55C44.5439 30.55 41.4272 30.95 38.3605 31.75C35.2939 32.5833 32.6772 33.6333 30.5105 34.9C28.3105 36.1667 26.5605 37.5333 25.2605 39C24.5939 39.7333 24.0939 40.5 23.7605 41.3C23.4272 42.1 23.2605 42.8667 23.2605 43.6C23.2605 45.0333 23.8272 46.25 24.9605 47.25C26.0605 48.25 27.6105 48.75 29.6105 48.75ZM58.1258 28.4C57.4591 28.4 56.8424 28.1 56.2758 27.5C55.7424 26.8667 55.4758 26.0667 55.4758 25.1C55.4758 24.1333 56.0591 22.6333 57.2258 20.6C58.3924 18.6 59.8258 16.8 61.5258 15.2C63.1924 13.6333 64.6258 12.85 65.8258 12.85H66.3258C67.5591 12.85 68.6091 13.1 69.4758 13.6C70.3424 14.0667 70.7758 14.7 70.7758 15.5C70.7758 15.8667 70.6258 16.05 70.3258 16.05C70.2258 16.05 70.1758 16 70.1758 15.9C69.6424 14.6667 68.8258 14.05 67.7258 14.05C65.8258 14.05 63.6591 15.6167 61.2258 18.75C58.7924 21.8167 57.5758 24.1833 57.5758 25.85C57.5758 26.4833 57.7424 26.8 58.0758 26.8C59.5758 26.8 62.7258 23.4167 67.5258 16.65C67.4924 16.6833 67.5091 16.6833 67.5758 16.65C67.6758 16.5833 67.7591 16.55 67.8258 16.55C67.9924 16.55 68.3424 16.7167 68.8758 17.05C69.4091 17.35 69.6758 17.6167 69.6758 17.85C69.6758 17.85 69.6091 17.9667 69.4758 18.2C69.3424 18.4 69.1758 18.7167 68.9758 19.15C68.4424 20.2833 68.0258 21.4 67.7258 22.5C67.4591 23.5667 67.3258 24.5 67.3258 25.3C67.3258 27.0667 67.7591 27.95 68.6258 27.95L69.1258 27.85L69.2258 27.9C69.2258 28.2 68.8091 28.35 67.9758 28.35C67.1758 28.35 66.5091 27.9833 65.9758 27.25C65.4758 26.4833 65.2258 25.4667 65.2258 24.2C65.2258 22.9667 65.4424 21.6 65.8758 20.1C65.8424 20.2 65.7258 20.3833 65.5258 20.65C65.3258 20.9167 65.0091 21.3833 64.5758 22.05C61.8424 26.2833 59.6924 28.4 58.1258 28.4ZM72.6637 28.1C72.3303 28.1 72.0137 28.0167 71.7137 27.85C71.4137 27.65 71.247 27.45 71.2137 27.25C71.2137 26.6833 71.7637 24.6833 72.8637 21.25C73.9637 17.7833 74.5137 15.1833 74.5137 13.45C74.5137 12.95 74.397 12.6667 74.1637 12.6C73.9303 12.5 73.697 12.4667 73.4637 12.5C73.2303 12.5 73.1137 12.4167 73.1137 12.25C73.1137 11.95 73.3637 11.8 73.8637 11.8C76.097 11.8 77.2137 12.7167 77.2137 14.55C77.2137 15.2167 76.4137 17.9333 74.8137 22.7C75.547 21.5333 76.2637 20.4667 76.9637 19.5C77.697 18.5 78.397 17.5833 79.0637 16.75C80.4303 15.0833 81.347 14.25 81.8137 14.25C81.8137 14.25 81.8137 14.2667 81.8137 14.3C81.847 14.3 81.8637 14.3167 81.8637 14.35C81.8637 14.3833 81.8303 14.4667 81.7637 14.6C81.7303 14.7 81.6303 14.85 81.4637 15.05C77.8637 19.3833 75.3637 23.1167 73.9637 26.25L73.5137 27.55C73.3803 27.9167 73.097 28.1 72.6637 28.1ZM83.0137 28.65C82.047 28.65 81.2803 28.2 80.7137 27.3C80.1803 26.4667 79.9137 25.2167 79.9137 23.55C79.9137 21.95 80.347 19.8 81.2137 17.1C82.0803 14.4 82.9137 13.05 83.7137 13.05H83.9637C85.0637 13.05 85.647 13.2667 85.7137 13.7C85.647 13.6333 85.5637 13.7333 85.4637 14C84.997 14.8333 84.547 15.7667 84.1137 16.8C83.7137 17.8333 83.3303 18.95 82.9637 20.15C82.2303 22.4833 81.8637 24.05 81.8637 24.85C81.8637 26.8833 82.2303 27.9 82.9637 27.9C83.1637 27.9 83.447 27.75 83.8137 27.45C84.2137 27.15 84.397 26.9833 84.3637 26.95C84.4637 26.95 84.5137 27.0833 84.5137 27.35C84.5137 28.2167 84.0137 28.65 83.0137 28.65ZM89.498 28.55C86.6647 28.55 85.248 27.2333 85.248 24.6C85.248 22.6 86.248 20.15 88.248 17.25C90.2814 14.3167 92.2314 12.85 94.098 12.85C94.7647 12.85 95.448 13.1 96.148 13.6C96.8814 14.0667 97.248 14.5833 97.248 15.15C97.248 16.7167 96.7147 17.5 95.648 17.5C95.3814 17.5 95.2147 17.4167 95.148 17.25C95.548 16.2833 95.748 15.5167 95.748 14.95C95.748 14.4167 95.6147 14.15 95.348 14.15C94.9814 14.15 94.3147 14.5333 93.348 15.3C92.5147 15.9667 91.7314 16.7333 90.998 17.6C90.298 18.4667 89.6647 19.3667 89.098 20.3C87.898 22.3333 87.298 24.0333 87.298 25.4C87.298 26.7333 87.8147 27.4 88.848 27.4C90.048 27.4 91.3647 26.7833 92.798 25.55C93.2647 25.1167 93.7647 24.6333 94.298 24.1C94.8314 23.5333 95.4147 22.9167 96.048 22.25C97.2814 20.9167 97.9314 20.25 97.998 20.25C98.198 20.25 98.298 20.3333 98.298 20.5C98.298 20.6333 98.2647 20.7667 98.198 20.9C94.698 26 91.798 28.55 89.498 28.55ZM101.607 28.55C98.7741 28.55 97.3574 27.2333 97.3574 24.6C97.3574 22.5667 98.3574 20.1 100.357 17.2C102.424 14.3 104.391 12.85 106.257 12.85C107.057 12.85 107.757 13.1167 108.357 13.65C108.991 14.15 109.307 14.7667 109.307 15.5C109.307 16.7333 108.524 17.9833 106.957 19.25C105.424 20.4833 103.907 21.1 102.407 21.1C102.107 21.1 101.957 21.0333 101.957 20.9L102.107 20.65C105.941 19.45 107.857 17.4833 107.857 14.75C107.857 14.35 107.724 14.15 107.457 14.15C107.091 14.15 106.424 14.5333 105.457 15.3C104.624 15.9667 103.841 16.7333 103.107 17.6C102.407 18.4667 101.774 19.3667 101.207 20.3C100.007 22.3333 99.4074 24.0333 99.4074 25.4C99.4074 26.7333 99.9241 27.4 100.957 27.4C102.157 27.4 103.474 26.7833 104.907 25.55C105.374 25.1167 105.874 24.6333 106.407 24.1C106.941 23.5333 107.524 22.9167 108.157 22.25C109.391 20.9167 110.041 20.25 110.107 20.25C110.307 20.25 110.407 20.3333 110.407 20.5C110.407 20.6333 110.374 20.7667 110.307 20.9C106.807 26 103.907 28.55 101.607 28.55Z" fill="#E2D8CF"/>
</svg>
